<svg xmlns="http://www.w3.org/2000/svg" xmlns:xlink="http://www.w3.org/1999/xlink" width="500" zoomAndPan="magnify" viewBox="0 0 375 374.999991" height="500" preserveAspectRatio="xMidYMid meet" version="1.0"><defs><g/><clipPath id="47a13c33f2"><path d="M 52.488281 221.457031 L 91.488281 221.457031 L 91.488281 222.957031 L 52.488281 222.957031 Z M 52.488281 221.457031 " clip-rule="nonzero"/></clipPath><clipPath id="26c48b731d"><path d="M 283.886719 221.457031 L 322.886719 221.457031 L 322.886719 222.957031 L 283.886719 222.957031 Z M 283.886719 221.457031 " clip-rule="nonzero"/></clipPath></defs><g fill="#000000" fill-opacity="1"><g transform="translate(56.042758, 210.442624)"><g><path d="M 12.625 -0.21875 C 12.84375 -0.109375 13.078125 -0.109375 13.296875 -0.21875 L 24.359375 -7 C 25.359375 -7.625 25.921875 -8.625 25.921875 -9.78125 L 25.921875 -18.140625 C 25.921875 -18.375 25.78125 -18.515625 25.546875 -18.515625 L 22.59375 -18.515625 C 22.359375 -18.515625 22.21875 -18.375 22.21875 -18.140625 L 22.21875 -10.328125 C 22.21875 -10.109375 22.109375 -9.890625 21.921875 -9.78125 L 13.140625 -4.4375 C 13.03125 -4.375 12.890625 -4.375 12.78125 -4.4375 L 4 -9.78125 C 3.8125 -9.890625 3.703125 -10.109375 3.703125 -10.328125 L 3.703125 -18.140625 C 3.703125 -18.375 3.5625 -18.515625 3.328125 -18.515625 L 0.375 -18.515625 C 0.140625 -18.515625 0 -18.375 0 -18.140625 L 0 -9.78125 C 0 -8.625 0.5625 -7.625 1.5625 -7 Z M 12.625 -0.21875 "/></g></g></g><g fill="#000000" fill-opacity="1"><g transform="translate(89.366841, 210.442624)"><g><path d="M 0.375 0 L 3.328125 0 C 3.5625 0 3.703125 -0.140625 3.703125 -0.375 L 3.703125 -7.40625 L 22.21875 -7.40625 L 22.21875 -0.375 C 22.21875 -0.140625 22.359375 0 22.59375 0 L 25.546875 0 C 25.78125 0 25.921875 -0.140625 25.921875 -0.375 L 25.921875 -14.734375 C 25.921875 -16.921875 24.328125 -18.515625 22.140625 -18.515625 L 3.78125 -18.515625 C 1.59375 -18.515625 0 -16.921875 0 -14.734375 L 0 -0.375 C 0 -0.140625 0.140625 0 0.375 0 Z M 3.703125 -11.109375 L 3.703125 -14.078125 C 3.703125 -14.484375 4.03125 -14.8125 4.4375 -14.8125 L 21.484375 -14.8125 C 21.890625 -14.8125 22.21875 -14.484375 22.21875 -14.078125 L 22.21875 -11.109375 Z M 3.703125 -11.109375 "/></g></g></g><g fill="#000000" fill-opacity="1"><g transform="translate(122.690923, 210.442624)"><g><path d="M 3.78125 0 L 25.546875 0 C 25.78125 0 25.921875 -0.140625 25.921875 -0.375 L 25.921875 -3.328125 C 25.921875 -3.5625 25.78125 -3.703125 25.546875 -3.703125 L 4.4375 -3.703125 C 4.03125 -3.703125 3.703125 -4.03125 3.703125 -4.4375 L 3.703125 -18.140625 C 3.703125 -18.375 3.5625 -18.515625 3.328125 -18.515625 L 0.375 -18.515625 C 0.140625 -18.515625 0 -18.375 0 -18.140625 L 0 -3.78125 C 0 -1.59375 1.59375 0 3.78125 0 Z M 3.78125 0 "/></g></g></g><g fill="#000000" fill-opacity="1"><g transform="translate(156.015006, 210.442624)"><g><path d="M 0.375 0 L 3.328125 0 C 3.5625 0 3.703125 -0.140625 3.703125 -0.375 L 3.703125 -7.40625 L 22.21875 -7.40625 L 22.21875 -0.375 C 22.21875 -0.140625 22.359375 0 22.59375 0 L 25.546875 0 C 25.78125 0 25.921875 -0.140625 25.921875 -0.375 L 25.921875 -18.140625 C 25.921875 -18.375 25.78125 -18.515625 25.546875 -18.515625 L 22.59375 -18.515625 C 22.359375 -18.515625 22.21875 -18.375 22.21875 -18.140625 L 22.21875 -11.109375 L 3.703125 -11.109375 L 3.703125 -18.140625 C 3.703125 -18.375 3.5625 -18.515625 3.328125 -18.515625 L 0.375 -18.515625 C 0.140625 -18.515625 0 -18.375 0 -18.140625 L 0 -0.375 C 0 -0.140625 0.140625 0 0.375 0 Z M 0.375 0 "/></g></g></g><g fill="#000000" fill-opacity="1"><g transform="translate(189.339089, 210.442624)"><g><path d="M 0.375 0 L 3.328125 0 C 3.5625 0 3.703125 -0.140625 3.703125 -0.375 L 3.703125 -7.40625 L 22.21875 -7.40625 L 22.21875 -0.375 C 22.21875 -0.140625 22.359375 0 22.59375 0 L 25.546875 0 C 25.78125 0 25.921875 -0.140625 25.921875 -0.375 L 25.921875 -14.734375 C 25.921875 -16.921875 24.328125 -18.515625 22.140625 -18.515625 L 3.78125 -18.515625 C 1.59375 -18.515625 0 -16.921875 0 -14.734375 L 0 -0.375 C 0 -0.140625 0.140625 0 0.375 0 Z M 3.703125 -11.109375 L 3.703125 -14.078125 C 3.703125 -14.484375 4.03125 -14.8125 4.4375 -14.8125 L 21.484375 -14.8125 C 21.890625 -14.8125 22.21875 -14.484375 22.21875 -14.078125 L 22.21875 -11.109375 Z M 3.703125 -11.109375 "/></g></g></g><g fill="#000000" fill-opacity="1"><g transform="translate(222.663172, 210.442624)"><g><path d="M 3.78125 0 L 25.546875 0 C 25.78125 0 25.921875 -0.140625 25.921875 -0.375 L 25.921875 -3.328125 C 25.921875 -3.5625 25.78125 -3.703125 25.546875 -3.703125 L 4.4375 -3.703125 C 4.03125 -3.703125 3.703125 -4.03125 3.703125 -4.4375 L 3.703125 -18.140625 C 3.703125 -18.375 3.5625 -18.515625 3.328125 -18.515625 L 0.375 -18.515625 C 0.140625 -18.515625 0 -18.375 0 -18.140625 L 0 -3.78125 C 0 -1.59375 1.59375 0 3.78125 0 Z M 3.78125 0 "/></g></g></g><g fill="#000000" fill-opacity="1"><g transform="translate(255.987254, 210.442624)"><g><path d="M 3.78125 0 L 25.546875 0 C 25.78125 0 25.921875 -0.140625 25.921875 -0.375 L 25.921875 -3.328125 C 25.921875 -3.5625 25.78125 -3.703125 25.546875 -3.703125 L 4.4375 -3.703125 C 4.03125 -3.703125 3.703125 -4.03125 3.703125 -4.4375 L 3.703125 -18.140625 C 3.703125 -18.375 3.5625 -18.515625 3.328125 -18.515625 L 0.375 -18.515625 C 0.140625 -18.515625 0 -18.375 0 -18.140625 L 0 -3.78125 C 0 -1.59375 1.59375 0 3.78125 0 Z M 3.78125 0 "/></g></g></g><g fill="#000000" fill-opacity="1"><g transform="translate(289.311337, 210.442624)"><g><path d="M 0.375 0 L 3.328125 0 C 3.5625 0 3.703125 -0.140625 3.703125 -0.375 L 3.703125 -7.40625 L 22.21875 -7.40625 L 22.21875 -0.375 C 22.21875 -0.140625 22.359375 0 22.59375 0 L 25.546875 0 C 25.78125 0 25.921875 -0.140625 25.921875 -0.375 L 25.921875 -14.734375 C 25.921875 -16.921875 24.328125 -18.515625 22.140625 -18.515625 L 3.78125 -18.515625 C 1.59375 -18.515625 0 -16.921875 0 -14.734375 L 0 -0.375 C 0 -0.140625 0.140625 0 0.375 0 Z M 3.703125 -11.109375 L 3.703125 -14.078125 C 3.703125 -14.484375 4.03125 -14.8125 4.4375 -14.8125 L 21.484375 -14.8125 C 21.890625 -14.8125 22.21875 -14.484375 22.21875 -14.078125 L 22.21875 -11.109375 Z M 3.703125 -11.109375 "/></g></g></g><g fill="#000000" fill-opacity="1"><g transform="translate(101.360534, 224.97173)"><g><path d="M 1.5625 0 L 10.53125 0 C 10.625 0 10.6875 -0.0625 10.6875 -0.15625 L 10.6875 -1.375 C 10.6875 -1.46875 10.625 -1.53125 10.53125 -1.53125 L 1.828125 -1.53125 C 1.65625 -1.53125 1.53125 -1.65625 1.53125 -1.828125 L 1.53125 -5.796875 C 1.53125 -5.96875 1.65625 -6.109375 1.828125 -6.109375 L 10.53125 -6.109375 C 10.625 -6.109375 10.6875 -6.171875 10.6875 -6.265625 L 10.6875 -7.484375 C 10.6875 -7.578125 10.625 -7.640625 10.53125 -7.640625 L 1.5625 -7.640625 C 0.65625 -7.640625 0 -6.96875 0 -6.078125 L 0 -1.5625 C 0 -0.65625 0.65625 0 1.5625 0 Z M 1.5625 0 "/></g></g></g><g fill="#000000" fill-opacity="1"><g transform="translate(119.992406, 224.97173)"><g><path d="M 0.15625 0 L 1.375 0 C 1.46875 0 1.53125 -0.0625 1.53125 -0.15625 L 1.53125 -3.046875 L 9.15625 -3.046875 L 9.15625 -0.15625 C 9.15625 -0.0625 9.21875 0 9.3125 0 L 10.53125 0 C 10.625 0 10.6875 -0.0625 10.6875 -0.15625 L 10.6875 -6.078125 C 10.6875 -6.96875 10.03125 -7.640625 9.125 -7.640625 L 1.5625 -7.640625 C 0.65625 -7.640625 0 -6.96875 0 -6.078125 L 0 -0.15625 C 0 -0.0625 0.0625 0 0.15625 0 Z M 1.53125 -4.578125 L 1.53125 -5.796875 C 1.53125 -5.96875 1.65625 -6.109375 1.828125 -6.109375 L 8.859375 -6.109375 C 9.015625 -6.109375 9.15625 -5.96875 9.15625 -5.796875 L 9.15625 -4.578125 Z M 1.53125 -4.578125 "/></g></g></g><g fill="#000000" fill-opacity="1"><g transform="translate(138.624278, 224.97173)"><g><path d="M 0.15625 0 L 1.375 0 C 1.46875 0 1.53125 -0.0625 1.53125 -0.15625 L 1.53125 -3.046875 L 7.296875 -3.046875 L 8.359375 0 L 10.046875 0 L 8.96875 -3.046875 L 9.125 -3.046875 C 10.03125 -3.046875 10.6875 -3.703125 10.6875 -4.609375 L 10.6875 -6.078125 C 10.6875 -6.96875 10.03125 -7.640625 9.125 -7.640625 L 0.15625 -7.640625 C 0.0625 -7.640625 0 -7.578125 0 -7.484375 L 0 -0.15625 C 0 -0.0625 0.0625 0 0.15625 0 Z M 1.53125 -4.578125 L 1.53125 -6.109375 L 8.859375 -6.109375 C 9.015625 -6.109375 9.15625 -5.96875 9.15625 -5.796875 L 9.15625 -4.890625 C 9.15625 -4.71875 9.015625 -4.578125 8.859375 -4.578125 Z M 1.53125 -4.578125 "/></g></g></g><g fill="#000000" fill-opacity="1"><g transform="translate(157.25615, 224.97173)"><g/></g></g><g fill="#000000" fill-opacity="1"><g transform="translate(168.259496, 224.97173)"><g><path d="M 0.15625 0 L 1.375 0 C 1.46875 0 1.53125 -0.0625 1.53125 -0.15625 L 1.53125 -3.046875 L 7.296875 -3.046875 L 8.359375 0 L 10.046875 0 L 8.96875 -3.046875 L 9.125 -3.046875 C 10.03125 -3.046875 10.6875 -3.703125 10.6875 -4.609375 L 10.6875 -6.078125 C 10.6875 -6.96875 10.03125 -7.640625 9.125 -7.640625 L 0.15625 -7.640625 C 0.0625 -7.640625 0 -7.578125 0 -7.484375 L 0 -0.15625 C 0 -0.0625 0.0625 0 0.15625 0 Z M 1.53125 -4.578125 L 1.53125 -6.109375 L 8.859375 -6.109375 C 9.015625 -6.109375 9.15625 -5.96875 9.15625 -5.796875 L 9.15625 -4.890625 C 9.15625 -4.71875 9.015625 -4.578125 8.859375 -4.578125 Z M 1.53125 -4.578125 "/></g></g></g><g fill="#000000" fill-opacity="1"><g transform="translate(186.891368, 224.97173)"><g><path d="M 1.5625 0 L 10.53125 0 C 10.625 0 10.6875 -0.0625 10.6875 -0.15625 L 10.6875 -1.375 C 10.6875 -1.46875 10.625 -1.53125 10.53125 -1.53125 L 1.828125 -1.53125 C 1.65625 -1.53125 1.53125 -1.65625 1.53125 -1.828125 L 1.53125 -3.046875 L 9.796875 -3.046875 C 9.921875 -3.046875 9.984375 -3.109375 9.984375 -3.203125 L 9.984375 -4.421875 C 9.984375 -4.515625 9.921875 -4.578125 9.796875 -4.578125 L 1.53125 -4.578125 L 1.53125 -5.796875 C 1.53125 -5.96875 1.65625 -6.109375 1.828125 -6.109375 L 10.53125 -6.109375 C 10.625 -6.109375 10.6875 -6.171875 10.6875 -6.265625 L 10.6875 -7.484375 C 10.6875 -7.578125 10.625 -7.640625 10.53125 -7.640625 L 1.5625 -7.640625 C 0.65625 -7.640625 0 -6.96875 0 -6.078125 L 0 -1.5625 C 0 -0.65625 0.65625 0 1.5625 0 Z M 1.5625 0 "/></g></g></g><g fill="#000000" fill-opacity="1"><g transform="translate(205.52324, 224.97173)"><g><path d="M 10.53125 0 C 10.625 0 10.6875 -0.0625 10.6875 -0.15625 L 10.6875 -7.484375 C 10.6875 -7.578125 10.625 -7.640625 10.53125 -7.640625 L 9.3125 -7.640625 C 9.21875 -7.640625 9.15625 -7.578125 9.15625 -7.484375 L 9.15625 -1.984375 L 1.53125 -7.640625 L 0.15625 -7.640625 C 0.0625 -7.640625 0 -7.578125 0 -7.484375 L 0 -0.15625 C 0 -0.0625 0.0625 0 0.15625 0 L 1.375 0 C 1.46875 0 1.53125 -0.0625 1.53125 -0.15625 L 1.53125 -5.640625 L 9.15625 0 Z M 10.53125 0 "/></g></g></g><g fill="#000000" fill-opacity="1"><g transform="translate(224.155113, 224.97173)"><g><path d="M 4.734375 0 L 5.953125 0 C 6.046875 0 6.109375 -0.0625 6.109375 -0.15625 L 6.109375 -6.109375 L 10.53125 -6.109375 C 10.625 -6.109375 10.6875 -6.171875 10.6875 -6.265625 L 10.6875 -7.484375 C 10.6875 -7.578125 10.625 -7.640625 10.53125 -7.640625 L 0.15625 -7.640625 C 0.0625 -7.640625 0 -7.578125 0 -7.484375 L 0 -6.265625 C 0 -6.171875 0.0625 -6.109375 0.15625 -6.109375 L 4.578125 -6.109375 L 4.578125 -0.15625 C 4.578125 -0.0625 4.640625 0 4.734375 0 Z M 4.734375 0 "/></g></g></g><g fill="#000000" fill-opacity="1"><g transform="translate(242.786985, 224.97173)"><g><path d="M 0.15625 0 L 1.375 0 C 1.46875 0 1.53125 -0.0625 1.53125 -0.15625 L 1.53125 -3.046875 L 9.15625 -3.046875 L 9.15625 -0.15625 C 9.15625 -0.0625 9.21875 0 9.3125 0 L 10.53125 0 C 10.625 0 10.6875 -0.0625 10.6875 -0.15625 L 10.6875 -6.078125 C 10.6875 -6.96875 10.03125 -7.640625 9.125 -7.640625 L 1.5625 -7.640625 C 0.65625 -7.640625 0 -6.96875 0 -6.078125 L 0 -0.15625 C 0 -0.0625 0.0625 0 0.15625 0 Z M 1.53125 -4.578125 L 1.53125 -5.796875 C 1.53125 -5.96875 1.65625 -6.109375 1.828125 -6.109375 L 8.859375 -6.109375 C 9.015625 -6.109375 9.15625 -5.96875 9.15625 -5.796875 L 9.15625 -4.578125 Z M 1.53125 -4.578125 "/></g></g></g><g fill="#000000" fill-opacity="1"><g transform="translate(261.418857, 224.97173)"><g><path d="M 1.5625 0 L 10.53125 0 C 10.625 0 10.6875 -0.0625 10.6875 -0.15625 L 10.6875 -1.375 C 10.6875 -1.46875 10.625 -1.53125 10.53125 -1.53125 L 1.828125 -1.53125 C 1.65625 -1.53125 1.53125 -1.65625 1.53125 -1.828125 L 1.53125 -7.484375 C 1.53125 -7.578125 1.46875 -7.640625 1.375 -7.640625 L 0.15625 -7.640625 C 0.0625 -7.640625 0 -7.578125 0 -7.484375 L 0 -1.5625 C 0 -0.65625 0.65625 0 1.5625 0 Z M 1.5625 0 "/></g></g></g><g clip-path="url(#47a13c33f2)"><path fill="#004aad" d="M 89.175781 226.082031 L 89.175781 238.753906 L 92.300781 241.878906 L 92.300781 243.890625 L 52.042969 243.890625 L 52.042969 199.527344 L 92.300781 199.527344 L 92.300781 222.957031 Z M 89.175781 226.082031 " fill-opacity="1" fill-rule="nonzero"/></g><g clip-path="url(#26c48b731d)"><path fill="#004aad" d="M 320.578125 226.082031 L 320.578125 238.753906 L 323.703125 241.878906 L 323.703125 243.890625 L 283.445312 243.890625 L 283.445312 199.527344 L 323.703125 199.527344 L 323.703125 222.957031 Z M 320.578125 226.082031 " fill-opacity="1" fill-rule="nonzero"/></g><path fill="#004aad" d="M 170.660156 169.671875 C 170.660156 169.671875 184.859375 164.308594 207.679688 169.671875 C 230.496094 175.035156 238.28125 182.921875 238.28125 182.921875 L 214.023438 182.921875 C 211.804688 179.984375 205.914062 173.539062 196.003906 172.089844 C 196.003906 172.089844 206.570312 175.085938 210.242188 182.921875 L 203.226562 182.921875 C 203.226562 182.921875 191.867188 167.566406 173.78125 179.066406 C 173.78125 179.066406 177.074219 172.933594 183.070312 170.199219 C 183.070312 170.199219 177.601562 168.410156 170.660156 169.671875 " fill-opacity="1" fill-rule="nonzero"/><path fill="#004aad" d="M 227.34375 159.679688 C 227.34375 159.679688 198.949219 158.527344 167.925781 160.839844 C 167.925781 160.839844 155.203125 151.515625 150.714844 148.148438 C 146.226562 144.785156 189.90625 139.597656 227.34375 159.679688 Z M 65.253906 182.921875 C 79.277344 173.597656 88.671875 182.921875 88.671875 182.921875 C 88.671875 182.921875 87.128906 173.316406 101.007812 175 C 114.890625 176.683594 159.898438 182.921875 159.898438 182.921875 L 94.839844 167.988281 C 139.429688 173.179688 154.851562 166.867188 154.851562 166.867188 C 115.292969 170.492188 98.625 158.597656 98.625 158.597656 C 98.625 158.597656 117.976562 144.996094 133.257812 147.519531 C 148.542969 150.042969 159.410156 166.304688 159.410156 166.304688 C 211.78125 153.265625 255.734375 182.921875 255.734375 182.921875 L 311.894531 182.921875 C 306.566406 177.035156 294.855469 172.6875 294.855469 172.6875 C 300.886719 174.578125 306.285156 176.964844 306.285156 176.964844 C 294.507812 163.503906 273.054688 166.027344 273.054688 166.027344 C 257.628906 161.539062 234.914062 159.789062 234.914062 159.789062 C 202.523438 141.699219 169.996094 141.347656 137.183594 143.453125 C 104.375 145.554688 91.265625 163.046875 82.011719 163.46875 C 72.753906 163.890625 69.109375 168.902344 69.742188 168.691406 C 70.371094 168.480469 72.019531 168.199219 72.019531 168.199219 C 63.082031 173.351562 65.253906 182.921875 65.253906 182.921875 " fill-opacity="1" fill-rule="nonzero"/></svg>